# File generated by ImageToStl.com - Free Image and 3D model conversion tools

mtllib cactus_A.mtl

# cactus_A_0
o obj1
v 0.07959493 22.3521438 -14.70380242
v -0.00013146 -5.00013962 -11.11903779
v -7.86243156 -4.97210027 -7.86234951
v -10.3175059 22.38921965 -10.39715895
v 10.4766883 22.3150522 10.39716635
v 7.86217079 -5.02818151 7.86234818
v 11.11883447 -5.03979847 -3.1E-07
v 14.78330046 22.29969203 2.92E-06
v 0.07959045 22.35212656 14.70381056
v -0.00013118 -5.00014216 11.11904018
v 7.86217079 -5.02818151 7.86234818
v 10.4766883 22.3150522 10.39716635
v -10.31750292 22.38921677 10.39716637
v -7.86243156 -4.97210248 7.8623482
v -0.00013118 -5.00014216 11.11904018
v 0.07959045 22.35212656 14.70381056
v -14.62412775 22.40457386 1.55E-06
v -11.11910045 -4.96048629 -8.9E-07
v -7.86243156 -4.97210248 7.8623482
v -10.31750292 22.38921677 10.39716637
v -10.3175059 22.38921965 -10.39715895
v -7.86243156 -4.97210027 -7.86234951
v -11.11910045 -4.96048629 -8.9E-07
v -14.62412775 22.40457386 1.55E-06
v 10.4766883 22.31505509 -10.39715897
v 7.86217079 -5.0281793 -7.86234953
v -0.00013146 -5.00013962 -11.11903779
v 0.07959493 22.3521438 -14.70380242
v 14.78330046 22.29969203 2.92E-06
v 11.11883447 -5.03979847 -3.1E-07
v 7.86217079 -5.0281793 -7.86234953
v 10.4766883 22.31505509 -10.39715897
v 0.11260044 31.60635627 -13.96372321
v 9.98638868 31.57114367 -9.87384472
v 0.13724566 38.51698587 -8.80285011
v 6.36176616 38.49477944 -6.22455286
v 0.14324635 40.19961357 5.71E-06
v 9.98638868 31.57114367 -9.87384472
v 14.07623291 31.55654967 4.04E-06
v 6.36176616 38.49477944 -6.22455286
v 8.94004703 38.48557472 4.94E-06
v 0.14324635 40.19961357 5.71E-06
v 14.07623291 31.55654967 4.04E-06
v 9.98638868 31.57114406 9.87385359
v 8.94004703 38.48557472 4.94E-06
v 6.36176616 38.49477592 6.22456378
v 9.98638868 31.57114406 9.87385359
v 0.11259839 31.60634541 13.96373508
v 6.36176616 38.49477592 6.22456378
v 0.13724603 38.51697197 8.80286141
v 0.14324635 40.19961357 5.71E-06
v 0.11259839 31.60634541 13.96373508
v -9.76119041 31.64156993 9.87385212
v 0.13724603 38.51697197 8.80286141
v -6.0872715 38.5391784 6.22456416
v 0.14324635 40.19961357 5.71E-06
v -9.76119041 31.64156993 9.87385212
v -13.85103762 31.65616095 3.54E-06
v -6.0872715 38.5391784 6.22456416
v -8.66555572 38.54837716 4.29E-06
v 0.14324635 40.19961357 5.71E-06
v -13.85103762 31.65616095 3.54E-06
v -9.76119041 31.64156954 -9.8738447
v -8.66555572 38.54837716 4.29E-06
v -6.08727448 38.53918192 -6.22455284
v -9.76119041 31.64156954 -9.8738447
v 0.11260044 31.60635627 -13.96372321
v -6.08727448 38.53918192 -6.22455284
v 0.13724566 38.51698587 -8.80285011
v -20.37089318 36.76634085 1.69797757
v -8.40461403 30.87026771 0.14508362
v -8.98037106 28.41052363 1.77618992
v -21.59359902 31.54271397 5.16187097
v -11.09515131 41.98995764 12.8495007
v -4.03677225 33.33000985 5.39621086
v -4.90895845 34.34886856 2.70482153
v -12.9473716 44.1536466 7.13395232
v -12.31785938 36.76633375 16.31339485
v -4.61253151 30.87026577 7.02732033
v -4.03677225 33.33000985 5.39621086
v -11.09515131 41.98995764 12.8495007
v -15.89924693 31.54271404 15.49653556
v -6.29896298 28.41051928 6.64266777
v -4.61253151 30.87026577 7.02732033
v -12.31785938 36.76633375 16.31339485
v -19.74138319 29.37901607 10.8774201
v -8.10818225 27.39166193 4.46757814
v -6.29896298 28.41051928 6.64266777
v -15.89924693 31.54271404 15.49653556
v -21.59359902 31.54271397 5.16187097
v -8.98037106 28.41052363 1.77618992
v -8.10818225 27.39166193 4.46757814
v -19.74138319 29.37901607 10.8774201
v -16.78950638 41.98995758 2.51483928
v -6.71817958 33.33001122 0.52973353
v -8.40461403 30.87026771 0.14508362
v -20.37089318 36.76634085 1.69797757
v -12.9473716 44.1536466 7.13395232
v -4.90895845 34.34886856 2.70482153
v -6.71817958 33.33001122 0.52973353
v -16.78950638 41.98995758 2.51483928
v -24.24041182 39.20740662 4.30954944
v -20.83929181 44.16811323 5.08529859
v -25.86807907 41.03028533 8.55001326
v -23.72397333 44.15755613 9.03904641
v -24.19790477 41.47413295 13.33294638
v -20.83929181 44.16811323 5.08529859
v -17.19053835 46.22289867 9.47191827
v -23.72397333 44.15755613 9.03904641
v -21.42376751 45.45291627 11.80440948
v -24.19790477 41.47413295 13.33294638
v -17.19053835 46.22289867 9.47191827
v -15.43154716 44.16811344 14.89979381
v -21.42376751 45.45291627 11.80440948
v -20.31488866 44.15755736 15.22618735
v -15.43154716 44.16811344 14.89979381
v -16.59270525 39.2074027 18.18933699
v -20.31488866 44.15755736 15.22618735
v -21.04689479 41.03028584 17.29994978
v -24.19790477 41.47413295 13.33294638
v -16.59270525 39.2074027 18.18933699
v -19.99383569 34.24669907 17.41359008
v -21.04689479 41.03028584 17.29994978
v -23.19099754 37.90301802 16.81091067
v -24.19790477 41.47413295 13.33294638
v -19.99383569 34.24669907 17.41359008
v -23.64259213 32.19191064 13.02696779
v -23.19099754 37.90301802 16.81091067
v -25.49120784 36.60765788 14.04554834
v -24.19790477 41.47413295 13.33294638
v -23.64259213 32.19191064 13.02696779
v -25.40158033 34.24669886 7.59909598
v -25.49120784 36.60765788 14.04554834
v -26.60008669 37.90301977 10.62376972
v -25.40158033 34.24669886 7.59909598
v -24.24041182 39.20740662 4.30954944
v -26.60008669 37.90301977 10.62376972
v -25.86807907 41.03028533 8.55001326
v 3.62839997 42.34848376 -12.53531871
v 3.19813192 36.46494643 -6.91171973
v 1.84942763 37.84964513 -4.60825202
v 0.76423325 45.28909541 -7.64357064
v 15.85106403 39.40787417 -3.61112213
v 8.95364732 35.08024292 -2.70941627
v 8.22156742 34.50668313 -5.56903886
v 14.2963931 38.18983113 -9.68394469
v 12.98689842 42.34847688 1.28062501
v 7.60494694 36.4649446 -0.40594838
v 8.95364732 35.08024292 -2.70941627
v 15.85106403 39.40787417 -3.61112213
v 7.38169849 45.28909266 2.12577332
v 4.96551394 37.84964383 -0.00797376
v 7.60494694 36.4649446 -0.40594838
v 12.98689842 42.34847688 1.28062501
v 2.31889654 46.50712952 -1.57074603
v 2.58150306 38.42320194 -1.74862739
v 4.96551394 37.84964383 -0.00797376
v 7.38169849 45.28909266 2.12577332
v 0.76423325 45.28909541 -7.64357064
v 1.84942763 37.84964513 -4.60825202
v 2.58150306 38.42320194 -1.74862739
v 2.31889654 46.50712952 -1.57074603
v 9.23360139 39.40787395 -13.38046869
v 5.83755784 35.08024422 -7.30969289
v 3.19813192 36.46494643 -6.91171973
v 3.62839997 42.34848376 -12.53531871
v 14.2963931 38.18983113 -9.68394469
v 8.22156742 34.50668313 -5.56903886
v 5.83755784 35.08024422 -7.30969289
v 9.23360139 39.40787395 -13.38046869
v 6.03093505 46.90099446 -13.65549582
v 11.35401651 44.10839787 -14.45811041
v 9.29153115 50.30060758 -12.32701536
v 12.64724582 48.54011302 -12.83298852
v 12.48691306 51.12836004 -8.45825422
v 11.35401651 44.10839787 -14.45811041
v 16.1619857 42.95165848 -10.94764004
v 12.64724582 48.54011302 -12.83298852
v 15.6782344 47.81090023 -10.61996065
v 12.48691306 51.12836004 -8.45825422
v 16.1619857 42.95165848 -10.94764004
v 17.63840914 44.10839823 -5.18047795
v 15.6782344 47.81090023 -10.61996065
v 16.60898179 48.54012031 -6.98429243
v 17.63840914 44.10839823 -5.18047795
v 14.91840184 46.90099374 -0.53494311
v 16.60898179 48.54012031 -6.98429243
v 14.89426792 50.30059929 -4.05570638
v 12.48691306 51.12836004 -8.45825422
v 14.91840184 46.90099374 -0.53494311
v 9.59531814 49.69359629 0.26766914
v 14.89426792 50.30059929 -4.05570638
v 11.53855175 52.06108193 -3.54973397
v 12.48691306 51.12836004 -8.45825422
v 9.59531814 49.69359629 0.26766914
v 4.78734523 50.85032674 -3.24279796
v 11.53855175 52.06108193 -3.54973397
v 8.50756243 52.7902977 -5.76276184
v 12.48691306 51.12836004 -8.45825422
v 4.78734523 50.85032674 -3.24279796
v 3.31092738 49.69359891 -9.00996192
v 8.50756243 52.7902977 -5.76276184
v 7.57681727 52.06108358 -9.39843154
v 3.31092738 49.69359891 -9.00996192
v 6.03093505 46.90099446 -13.65549582
v 7.57681727 52.06108358 -9.39843154
v 9.29153115 50.30060758 -12.32701536
v 10.57387665 52.16962488 -13.76865673
v 10.15450805 48.80673283 -10.34117454
v 9.17032957 49.8171801 -8.66028528
v 8.69630128 54.09731567 -10.56192183
v 18.58631372 50.24193153 -7.91849343
v 14.35442418 47.79629019 -7.27466784
v 13.82021308 47.37774696 -9.3613923
v 17.56716818 49.44346585 -11.89947
v 16.70874208 52.16961636 -4.71176039
v 13.37025017 48.80673447 -5.59377932
v 14.35442418 47.79629019 -7.27466784
v 18.58631372 50.24193153 -7.91849343
v 13.03431094 54.09731386 -4.15773169
v 11.44420207 49.81717915 -5.30336956
v 13.37025017 48.80673447 -5.59377932
v 16.70874208 52.16961636 -4.71176039
v 9.71544534 54.89578433 -6.58094601
v 9.70454067 50.23572034 -6.57356007
v 11.44420207 49.81717915 -5.30336956
v 13.03431094 54.09731386 -4.15773169
v 8.69630128 54.09731567 -10.56192183
v 9.17032957 49.8171801 -8.66028528
v 9.70454067 50.23572034 -6.57356007
v 9.71544534 54.89578433 -6.58094601
v 14.24830705 50.24193333 -14.32268543
v 12.08055019 47.79628815 -10.63158281
v 10.15450805 48.80673283 -10.34117454
v 10.57387665 52.16962488 -13.76865673
v 17.56716818 49.44346585 -11.89947
v 13.82021308 47.37774696 -9.3613923
v 12.08055019 47.79628815 -10.63158281
v 14.24830705 50.24193333 -14.32268543
v 12.14883327 55.15397004 -14.50297618
v 15.63832313 53.32332081 -15.02912328
v 14.28628266 57.38255766 -13.63210549
v 16.48608595 56.22848666 -13.96379077
v 16.38098359 57.92517975 -11.09598135
v 15.63832313 53.32332081 -15.02912328
v 18.79013628 52.56502987 -12.72787161
v 16.48608595 56.22848666 -13.96379077
v 18.47301722 55.750457 -12.51306302
v 16.38098359 57.92517975 -11.09598135
v 18.79013628 52.56502987 -12.72787161
v 19.75798905 53.3233191 -8.94727022
v 18.47301722 55.750457 -12.51306302
v 19.08315867 56.22849154 -10.12973913
v 19.75798905 53.3233191 -8.94727022
v 17.9749161 55.15396762 -5.90193541
v 19.08315867 56.22849154 -10.12973913
v 17.95909703 57.38255017 -8.20993652
v 16.38098359 57.92517975 -11.09598135
v 17.9749161 55.15396762 -5.90193541
v 14.48542774 56.98464068 -5.37579277
v 17.95909703 57.38255017 -8.20993652
v 15.75929374 58.53660925 -7.87825274
v 16.38098359 57.92517975 -11.09598135
v 14.48542774 56.98464068 -5.37579277
v 11.3336131 57.74293162 -7.67704407
v 15.75929374 58.53660925 -7.87825274
v 13.77235949 59.01465083 -9.32897751
v 16.38098359 57.92517975 -11.09598135
v 11.3336131 57.74293162 -7.67704407
v 10.36576107 56.9846424 -11.45764472
v 13.77235949 59.01465083 -9.32897751
v 13.16221952 58.53661033 -11.71230289
v 10.36576107 56.9846424 -11.45764472
v 12.14883327 55.15397004 -14.50297618
v 13.16221952 58.53661033 -11.71230289
v 14.28628266 57.38255766 -13.63210549
vn -0.00016 -0.02463 -0.9997
vn -0.0003 -0.12995 -0.99152
vn -0.70145 -0.1279 -0.70115
vn -0.70701 -0.02233 -0.70685
vn 0.70677 -0.02693 0.70693
vn 0.70077 -0.132 0.70107
vn 0.99114 -0.13285 0
vn 0.99961 -0.02789 -0
vn -0.00016 -0.02463 0.9997
vn -0.0003 -0.12995 0.99152
vn -0.70701 -0.02233 0.70685
vn -0.70145 -0.1279 0.70115
vn -0.99977 -0.02138 0
vn -0.9919 -0.12705 -0
vn 0.70677 -0.02693 -0.70693
vn 0.70077 -0.132 -0.70107
vn 0.00119 0.33232 -0.94316
vn 0.6681 0.32995 -0.66692
vn 0.00288 0.80809 -0.58906
vn 0.41941 0.8066 -0.41653
vn 0.00357 0.99999 0
vn 0.94434 0.32896 -0
vn 0.59194 0.80598 -0
vn 0.6681 0.32995 0.66692
vn 0.41941 0.8066 0.41653
vn 0.00119 0.33233 0.94316
vn 0.00288 0.80809 0.58906
vn -0.66573 0.3347 0.66692
vn -0.41364 0.80957 0.41653
vn -0.94197 0.33569 0
vn -0.58617 0.81019 -0
vn -0.66573 0.3347 -0.66692
vn -0.41364 0.80957 -0.41653
vn -0.38494 -0.0564 -0.92122
vn -0.20086 -0.1528 -0.96763
vn -0.33926 -0.74408 -0.57554
vn -0.5304 -0.67784 -0.50913
vn 0.71857 0.56504 0.40545
vn 0.84908 0.43847 0.29464
vn 0.63942 0.68338 -0.35232
vn 0.49821 0.82245 -0.27451
vn 0.5731 -0.0564 0.81754
vn 0.71068 -0.1528 0.68672
vn 0.14704 -0.67784 0.72036
vn 0.30529 -0.74408 0.59426
vn -0.31005 -0.93524 0.17084
vn -0.12961 -0.98899 0.07141
vn 0.04112 0.56504 -0.82404
vn 0.20452 0.43847 -0.87517
vn -0.71287 0.15448 -0.68407
vn -0.30803 0.74496 -0.59173
vn -0.91092 0.37564 -0.17065
vn -0.65807 0.74443 -0.11297
vn -0.77546 0.46485 0.42728
vn 0.12629 0.98955 -0.06959
vn -0.38682 0.89719 0.21313
vn 0.33567 0.74496 0.5765
vn -0.25605 0.74443 0.61665
vn 0.19745 0.15448 0.96806
vn -0.34237 0.37564 0.8612
vn -0.20739 -0.436 0.87573
vn -0.59522 0.00686 0.80353
vn -0.64171 -0.68058 0.35358
vn -0.86647 -0.1459 0.47742
vn -0.85108 -0.436 -0.29251
vn -0.99724 0.00686 0.07391
vn -0.63907 -0.19754 -0.74335
vn -0.69742 -0.46787 -0.54286
vn -0.98489 -0.16504 -0.05238
vn -0.9734 0.14929 -0.17378
vn 0.78464 -0.54317 0.29885
vn 0.52943 -0.7693 0.35762
vn 0.37143 -0.89372 -0.2516
vn 0.60242 -0.68599 -0.40806
vn 0.45324 -0.19754 0.86923
vn 0.24541 -0.46787 0.84904
vn -0.19972 0.14929 0.96841
vn -0.31671 -0.16504 0.93405
vn -0.79152 0.29331 0.53615
vn -0.8273 -0.03921 0.56039
vn 0.01355 -0.54317 -0.83951
vn -0.1357 -0.7693 -0.62431
vn -0.39181 0.28811 -0.87378
vn 0.24181 -0.0443 -0.96931
vn 0.00312 0.70056 -0.71359
vn 0.39884 0.49295 -0.77325
vn 0.41266 0.86693 -0.27953
vn 0.81411 -0.18199 -0.55145
vn 0.75628 0.40696 -0.51228
vn 0.98985 -0.0443 0.13502
vn 0.86604 0.49295 -0.08354
vn 0.66609 0.28811 0.68799
vn 0.66383 0.70056 0.26182
vn 0.03247 0.62051 0.78352
vn 0.2681 0.90817 0.32149
vn -0.53983 0.7582 0.36567
vn -0.08934 0.99416 0.06051
vn -0.71557 0.62051 -0.32081
vn -0.19909 0.90817 -0.36823
vn -0.63612 -0.19943 -0.74537
vn -0.70584 -0.46054 -0.53823
vn -0.98943 -0.13411 -0.0552
vn -0.97037 0.16026 -0.18085
vn 0.77774 -0.55299 0.29886
vn 0.50662 -0.77986 0.36763
vn 0.34379 -0.90971 -0.23287
vn 0.59307 -0.69776 -0.40173
vn 0.45621 -0.19943 0.86724
vn 0.23798 -0.46054 0.85514
vn -0.19202 0.16026 0.96822
vn -0.31577 -0.13411 0.93931
vn -0.78684 0.31116 0.53298
vn -0.82793 0.00283 0.56082
vn 0.01098 -0.55299 -0.83312
vn -0.15346 -0.77986 -0.60685
vn -0.39181 0.2881 -0.87378
vn 0.24181 -0.0443 -0.96931
vn 0.00312 0.70056 -0.71359
vn 0.39884 0.49295 -0.77325
vn 0.41266 0.86693 -0.27953
vn 0.81411 -0.18199 -0.55145
vn 0.75628 0.40696 -0.51228
vn 0.98985 -0.0443 0.13502
vn 0.86604 0.49295 -0.08354
vn 0.66609 0.28811 0.68799
vn 0.66383 0.70056 0.26182
vn 0.03247 0.62051 0.78352
vn 0.2681 0.90817 0.32149
vn -0.53983 0.7582 0.36567
vn -0.08933 0.99416 0.06051
vn -0.71557 0.62051 -0.32081
vn -0.1991 0.90817 -0.36823
vt 0.18398 0.60848
vt 0.18377 0.5457
vt 0.17097 0.51458
vt 0.16705 0.5774
vt 0.20091 0.60831
vt 0.19657 0.54557
vt 0.20187 0.51427
vt 0.20792 0.57699
vt 0.19657 0.51432
vt 0.20091 0.57706
vt 0.16705 0.60865
vt 0.17097 0.54583
vt 0.18377 0.51445
vt 0.18398 0.57723
vt 0.16004 0.60872
vt 0.16567 0.54588
vt 0.16567 0.51463
vt 0.16004 0.57747
vt 0.20792 0.60824
vt 0.20187 0.54552
vt 0.18407 0.60323
vt 0.20014 0.63432
vt 0.18413 0.62264
vt 0.19427 0.65379
vt 0.18646 0.62734
vt 0.20014 0.60307
vt 0.2068 0.63425
vt 0.19427 0.62254
vt 0.19846 0.65374
vt 0.18741 0.62733
vt 0.2068 0.603
vt 0.19846 0.62249
vt 0.18407 0.63448
vt 0.18413 0.65389
vt 0.18415 0.62736
vt 0.16799 0.63464
vt 0.174 0.65399
vt 0.18184 0.62739
vt 0.16799 0.60339
vt 0.16133 0.6347
vt 0.174 0.62274
vt 0.1698 0.65403
vt 0.18088 0.62739
vt 0.16133 0.60345
vt 0.1698 0.62278
vt 0.174 0.65399
vt 0.174 0.62274
usemtl mat0
f 1/1/1 2/2/2 3/3/3
f 3/3/3 4/4/4 1/1/1
f 5/5/5 6/6/6 7/7/7
f 7/7/7 8/8/8 5/5/5
f 9/1/9 10/2/10 11/9/6
f 11/9/6 12/10/5 9/1/9
f 13/11/11 14/12/12 15/13/10
f 15/13/10 16/14/9 13/11/11
f 17/15/13 18/16/14 19/3/12
f 19/3/12 20/4/11 17/15/13
f 21/11/4 22/12/3 23/17/14
f 23/17/14 24/18/13 21/11/4
f 25/5/15 26/6/16 27/13/2
f 27/13/2 28/14/1 25/5/15
f 29/19/8 30/20/7 31/9/16
f 31/9/16 32/10/15 29/19/8
f 33/21/17 34/22/18 25/5/15
f 25/5/15 28/14/1 33/21/17
f 35/23/19 36/24/20 34/22/18
f 34/22/18 33/21/17 35/23/19
f 36/24/20 35/23/19 37/25/21
f 38/26/18 39/27/22 29/19/8
f 29/19/8 32/10/15 38/26/18
f 40/28/20 41/29/23 39/27/22
f 39/27/22 38/26/18 40/28/20
f 41/29/23 40/28/20 42/30/21
f 43/31/22 44/22/24 5/5/5
f 5/5/5 8/8/8 43/31/22
f 45/32/23 46/24/25 44/22/24
f 44/22/24 43/31/22 45/32/23
f 46/24/25 45/32/23 37/25/21
f 47/26/24 48/33/26 9/1/9
f 9/1/9 12/10/5 47/26/24
f 49/28/25 50/34/27 48/33/26
f 48/33/26 47/26/24 49/28/25
f 50/34/27 49/28/25 51/35/21
f 52/21/26 53/36/28 13/11/11
f 13/11/11 16/14/9 52/21/26
f 54/23/27 55/37/29 53/36/28
f 53/36/28 52/21/26 54/23/27
f 55/37/29 54/23/27 56/38/21
f 57/39/28 58/40/30 17/15/13
f 17/15/13 20/4/11 57/39/28
f 59/41/29 60/42/31 58/40/30
f 58/40/30 57/39/28 59/41/29
f 60/42/31 59/41/29 61/43/21
f 62/44/30 63/36/32 21/11/4
f 21/11/4 24/18/13 62/44/30
f 64/45/31 65/46/33 63/36/32
f 63/36/32 62/44/30 64/45/31
f 65/46/33 64/45/31 56/38/21
f 66/39/32 67/33/17 1/1/1
f 1/1/1 4/4/4 66/39/32
f 68/47/33 69/34/19 67/33/17
f 67/33/17 66/39/32 68/47/33
f 69/34/19 68/47/33 51/35/21
f 70/1/34 71/2/35 72/3/36
f 72/3/36 73/4/37 70/1/34
f 74/5/38 75/6/39 76/7/40
f 76/7/40 77/8/41 74/5/38
f 78/1/42 79/2/43 80/9/39
f 80/9/39 81/10/38 78/1/42
f 82/11/44 83/12/45 84/13/43
f 84/13/43 85/14/42 82/11/44
f 86/15/46 87/16/47 88/3/45
f 88/3/45 89/4/44 86/15/46
f 90/11/37 91/12/36 92/17/47
f 92/17/47 93/18/46 90/11/37
f 94/5/48 95/6/49 96/13/35
f 96/13/35 97/14/34 94/5/48
f 98/19/41 99/20/40 100/9/49
f 100/9/49 101/10/48 98/19/41
f 102/21/50 103/22/51 94/5/48
f 94/5/48 97/14/34 102/21/50
f 104/23/52 105/24/53 103/22/51
f 103/22/51 102/21/50 104/23/52
f 105/24/53 104/23/52 106/25/54
f 107/26/51 108/27/55 98/19/41
f 98/19/41 101/10/48 107/26/51
f 109/28/53 110/29/56 108/27/55
f 108/27/55 107/26/51 109/28/53
f 110/29/56 109/28/53 111/30/54
f 112/31/55 113/22/57 74/5/38
f 74/5/38 77/8/41 112/31/55
f 114/32/56 115/24/58 113/22/57
f 113/22/57 112/31/55 114/32/56
f 115/24/58 114/32/56 106/25/54
f 116/26/57 117/33/59 78/1/42
f 78/1/42 81/10/38 116/26/57
f 118/28/58 119/34/60 117/33/59
f 117/33/59 116/26/57 118/28/58
f 119/34/60 118/28/58 120/35/54
f 121/21/59 122/36/61 82/11/44
f 82/11/44 85/14/42 121/21/59
f 123/23/60 124/37/62 122/36/61
f 122/36/61 121/21/59 123/23/60
f 124/37/62 123/23/60 125/38/54
f 126/39/61 127/40/63 86/15/46
f 86/15/46 89/4/44 126/39/61
f 128/41/62 129/42/64 127/40/63
f 127/40/63 126/39/61 128/41/62
f 129/42/64 128/41/62 130/43/54
f 131/44/63 132/36/65 90/11/37
f 90/11/37 93/18/46 131/44/63
f 133/45/64 134/46/66 132/36/65
f 132/36/65 131/44/63 133/45/64
f 134/46/66 133/45/64 125/38/54
f 135/39/65 136/33/50 70/1/34
f 70/1/34 73/4/37 135/39/65
f 137/47/66 138/34/52 136/33/50
f 136/33/50 135/39/65 137/47/66
f 138/34/52 137/47/66 120/35/54
f 139/1/67 140/2/68 141/3/69
f 141/3/69 142/4/70 139/1/67
f 143/5/71 144/6/72 145/7/73
f 145/7/73 146/8/74 143/5/71
f 147/1/75 148/2/76 149/9/72
f 149/9/72 150/10/71 147/1/75
f 151/11/77 152/12/78 153/13/76
f 153/13/76 154/14/75 151/11/77
f 155/15/79 156/16/80 157/3/78
f 157/3/78 158/4/77 155/15/79
f 159/11/70 160/12/69 161/17/80
f 161/17/80 162/18/79 159/11/70
f 163/5/81 164/6/82 165/13/68
f 165/13/68 166/14/67 163/5/81
f 167/19/74 168/20/73 169/9/82
f 169/9/82 170/10/81 167/19/74
f 171/21/83 172/22/84 163/5/81
f 163/5/81 166/14/67 171/21/83
f 173/23/85 174/24/86 172/22/84
f 172/22/84 171/21/83 173/23/85
f 174/24/86 173/23/85 175/25/87
f 176/26/84 177/27/88 167/19/74
f 167/19/74 170/10/81 176/26/84
f 178/28/86 179/29/89 177/27/88
f 177/27/88 176/26/84 178/28/86
f 179/29/89 178/28/86 180/30/87
f 181/31/88 182/22/90 143/5/71
f 143/5/71 146/8/74 181/31/88
f 183/32/89 184/24/91 182/22/90
f 182/22/90 181/31/88 183/32/89
f 184/24/91 183/32/89 175/25/87
f 185/26/90 186/33/92 147/1/75
f 147/1/75 150/10/71 185/26/90
f 187/28/91 188/34/93 186/33/92
f 186/33/92 185/26/90 187/28/91
f 188/34/93 187/28/91 189/35/87
f 190/21/92 191/36/94 151/11/77
f 151/11/77 154/14/75 190/21/92
f 192/23/93 193/37/95 191/36/94
f 191/36/94 190/21/92 192/23/93
f 193/37/95 192/23/93 194/38/87
f 195/39/94 196/40/96 155/15/79
f 155/15/79 158/4/77 195/39/94
f 197/41/95 198/42/97 196/40/96
f 196/40/96 195/39/94 197/41/95
f 198/42/97 197/41/95 199/43/87
f 200/44/96 201/36/98 159/11/70
f 159/11/70 162/18/79 200/44/96
f 202/45/97 203/46/99 201/36/98
f 201/36/98 200/44/96 202/45/97
f 203/46/99 202/45/97 194/38/87
f 204/39/98 205/33/83 139/1/67
f 139/1/67 142/4/70 204/39/98
f 206/47/99 207/34/85 205/33/83
f 205/33/83 204/39/98 206/47/99
f 207/34/85 206/47/99 189/35/87
f 208/1/100 209/2/101 210/3/102
f 210/3/102 211/4/103 208/1/100
f 212/5/104 213/6/105 214/7/106
f 214/7/106 215/8/107 212/5/104
f 216/1/108 217/2/109 218/9/105
f 218/9/105 219/10/104 216/1/108
f 220/11/110 221/12/111 222/13/109
f 222/13/109 223/14/108 220/11/110
f 224/15/112 225/16/113 226/3/111
f 226/3/111 227/4/110 224/15/112
f 228/11/103 229/12/102 230/17/113
f 230/17/113 231/18/112 228/11/103
f 232/5/114 233/6/115 234/13/101
f 234/13/101 235/14/100 232/5/114
f 236/19/107 237/20/106 238/9/115
f 238/9/115 239/10/114 236/19/107
f 240/21/116 241/22/117 232/5/114
f 232/5/114 235/14/100 240/21/116
f 242/23/118 243/24/119 241/22/117
f 241/22/117 240/21/116 242/23/118
f 243/24/119 242/23/118 244/25/120
f 245/26/117 246/27/121 236/19/107
f 236/19/107 239/10/114 245/26/117
f 247/28/119 248/29/122 246/27/121
f 246/27/121 245/26/117 247/28/119
f 248/29/122 247/28/119 249/30/120
f 250/31/121 251/22/123 212/5/104
f 212/5/104 215/8/107 250/31/121
f 252/32/122 253/24/124 251/22/123
f 251/22/123 250/31/121 252/32/122
f 253/24/124 252/32/122 244/25/120
f 254/26/123 255/33/125 216/1/108
f 216/1/108 219/10/104 254/26/123
f 256/28/124 257/34/126 255/33/125
f 255/33/125 254/26/123 256/28/124
f 257/34/126 256/28/124 258/35/120
f 259/21/125 260/36/127 220/11/110
f 220/11/110 223/14/108 259/21/125
f 261/23/126 262/37/128 260/36/127
f 260/36/127 259/21/125 261/23/126
f 262/37/128 261/23/126 263/38/120
f 264/39/127 265/40/129 224/15/112
f 224/15/112 227/4/110 264/39/127
f 266/41/128 267/42/130 265/40/129
f 265/40/129 264/39/127 266/41/128
f 267/42/130 266/41/128 268/43/120
f 269/44/129 270/36/131 228/11/103
f 228/11/103 231/18/112 269/44/129
f 271/45/130 272/46/132 270/36/131
f 270/36/131 269/44/129 271/45/130
f 272/46/132 271/45/130 263/38/120
f 273/39/131 274/33/116 208/1/100
f 208/1/100 211/4/103 273/39/131
f 275/47/132 276/34/118 274/33/116
f 274/33/116 273/39/131 275/47/132
f 276/34/118 275/47/132 258/35/120
# Vertices: 276, normals: 132, texture coordinates: 47, faces: 224

